<svg width="199" height="49" viewBox="0 0 199 49" fill="none" xmlns="http://www.w3.org/2000/svg">
<g clip-path="url(#clip0_32889_114990)">
<rect width="199" height="48.0235" fill="url(#paint0_linear_32889_114990)"/>
<circle opacity="0.6" cx="45.7055" cy="42.4738" r="0.594136" fill="white"/>
<ellipse opacity="0.6" cx="86.9556" cy="30.5911" rx="0.424383" ry="0.424383" fill="white"/>
<ellipse opacity="0.6" cx="94.683" cy="3.4838" rx="0.483796" ry="0.483796" fill="white"/>
<circle opacity="0.4" cx="104.406" cy="16.775" r="0.59375" fill="white"/>
<circle opacity="0.5" cx="67.3763" cy="19.7178" r="0.376286" fill="white"/>
<ellipse opacity="0.6" cx="94.2025" cy="21.89" rx="0.483796" ry="0.483796" fill="white"/>
<ellipse opacity="0.4" cx="82.3713" cy="47.7361" rx="0.763889" ry="0.763889" fill="white"/>
<path d="M96.5232 25.7612C96.3084 25.5465 96.2294 25.2542 96.1986 25.0944C96.1934 25.0674 96.17 25.0476 96.1426 25.0476C96.1151 25.0476 96.0918 25.0674 96.0866 25.0944C96.0556 25.2558 95.977 25.5462 95.762 25.7612C95.5472 25.976 95.2549 26.055 95.0951 26.0858C95.0682 26.091 95.0483 26.1144 95.0483 26.1418C95.0483 26.1693 95.0682 26.1926 95.0951 26.1978C95.2549 26.2286 95.5472 26.3077 95.762 26.5224C95.9767 26.7372 96.0558 27.0295 96.0866 27.1893C96.0918 27.2162 96.1151 27.2361 96.1426 27.2361C96.17 27.2361 96.1934 27.2162 96.1986 27.1893C96.2294 27.0295 96.3084 26.7372 96.5232 26.5224C96.7382 26.3074 97.0286 26.2288 97.19 26.1978C97.217 26.1926 97.2368 26.1693 97.2368 26.1418C97.2368 26.1144 97.217 26.091 97.19 26.0858C97.0302 26.055 96.7379 25.976 96.5232 25.7612Z" fill="white"/>
<path opacity="0.5" d="M53.3411 26.1705C52.7288 25.5582 52.5034 24.7247 52.4155 24.269C52.4006 24.1922 52.3341 24.1357 52.2559 24.1357C52.1776 24.1357 52.1111 24.1922 52.0963 24.2691C52.0078 24.7293 51.7838 25.5573 51.1706 26.1705C50.5583 26.7828 49.7249 27.0082 49.2692 27.0961C49.1923 27.1109 49.1358 27.1774 49.1358 27.2557C49.1358 27.334 49.1923 27.4005 49.2692 27.4153C49.7249 27.5033 50.5583 27.7286 51.1706 28.3409C51.7829 28.9533 52.0083 29.7867 52.0963 30.2424C52.1111 30.3192 52.1776 30.3758 52.2559 30.3758C52.3341 30.3758 52.4006 30.3192 52.4155 30.2424C52.5034 29.7867 52.7288 28.9533 53.3411 28.3409C53.9543 27.7278 54.7823 27.5038 55.2425 27.4153C55.3193 27.4005 55.3759 27.334 55.3759 27.2557C55.3759 27.1774 55.3194 27.1109 55.2425 27.0961C54.7868 27.0082 53.9534 26.7828 53.3411 26.1705Z" fill="white"/>
<path d="M102.84 9.91913C102.523 9.60301 102.407 9.17275 102.362 8.93748C102.354 8.8978 102.32 8.86862 102.279 8.86862C102.239 8.86862 102.205 8.89782 102.197 8.93751C102.151 9.17507 102.036 9.60257 101.719 9.91913C101.403 10.2352 100.973 10.3516 100.737 10.397C100.698 10.4047 100.669 10.439 100.669 10.4794C100.669 10.5198 100.698 10.5541 100.737 10.5618C100.973 10.6072 101.403 10.7236 101.719 11.0397C102.035 11.3558 102.151 11.7861 102.197 12.0213C102.205 12.061 102.239 12.0902 102.279 12.0902C102.32 12.0902 102.354 12.061 102.362 12.0213C102.407 11.7861 102.523 11.3558 102.84 11.0397C103.156 10.7231 103.584 10.6075 103.821 10.5618C103.861 10.5541 103.89 10.5198 103.89 10.4794C103.89 10.439 103.861 10.4047 103.821 10.397C103.586 10.3516 103.156 10.2352 102.84 9.91913Z" fill="white"/>
<path opacity="0.5" d="M96.1509 46.4191C95.8388 46.1069 95.7239 45.682 95.679 45.4497C95.6715 45.4105 95.6376 45.3817 95.5977 45.3817C95.5577 45.3817 95.5238 45.4105 95.5163 45.4497C95.4712 45.6843 95.357 46.1065 95.0444 46.4191C94.7322 46.7313 94.3073 46.8462 94.0749 46.891C94.0358 46.8986 94.0069 46.9325 94.0069 46.9724C94.0069 47.0123 94.0358 47.0462 94.0749 47.0538C94.3073 47.0986 94.7322 47.2135 95.0444 47.5257C95.3565 47.8379 95.4714 48.2628 95.5163 48.4951C95.5238 48.5343 95.5577 48.5631 95.5977 48.5631C95.6376 48.5631 95.6715 48.5343 95.679 48.4951C95.7239 48.2628 95.8388 47.8379 96.1509 47.5257C96.4636 47.2131 96.8857 47.0988 97.1203 47.0537C97.1595 47.0462 97.1884 47.0123 97.1884 46.9724C97.1884 46.9325 97.1596 46.8986 97.1204 46.891C96.888 46.8462 96.4631 46.7313 96.1509 46.4191Z" fill="white"/>
<path d="M54.2438 34.9835C54.201 34.9408 54.1853 34.8825 54.1791 34.8507C54.1781 34.8453 54.1734 34.8414 54.168 34.8414C54.1625 34.8414 54.1579 34.8453 54.1568 34.8507C54.1506 34.8828 54.135 34.9407 54.0922 34.9835C54.0494 35.0263 53.9912 35.042 53.9593 35.0482C53.954 35.0492 53.95 35.0539 53.95 35.0593C53.95 35.0648 53.954 35.0694 53.9593 35.0705C53.9912 35.0766 54.0494 35.0924 54.0922 35.1351C54.1349 35.1779 54.1507 35.2361 54.1568 35.268C54.1579 35.2733 54.1625 35.2773 54.168 35.2773C54.1734 35.2773 54.1781 35.2733 54.1791 35.268C54.1853 35.2361 54.201 35.1779 54.2438 35.1351C54.2866 35.0923 54.3444 35.0767 54.3766 35.0705C54.382 35.0694 54.3859 35.0648 54.3859 35.0593C54.3859 35.0539 54.382 35.0492 54.3766 35.0482C54.3448 35.042 54.2865 35.0263 54.2438 34.9835Z" fill="white"/>
</g>
<defs>
<linearGradient id="paint0_linear_32889_114990" x1="6.5" y1="-6.5" x2="45.5" y2="41.5" gradientUnits="userSpaceOnUse">
<stop stop-color="#FFBBBB"/>
<stop offset="1" stop-color="white"/>
</linearGradient>
<clipPath id="clip0_32889_114990">
<rect width="199" height="48.0235" fill="white"/>
</clipPath>
</defs>
</svg>
