<?xml version="1.0" encoding="utf-8" ?>
<svg xmlns="http://www.w3.org/2000/svg" xmlns:xlink="http://www.w3.org/1999/xlink" width="64" height="64">
	<rect fill="#FC91AD" width="64" height="64"/>
	<path fill="white" d="M12.7734 20.5938L21.2109 20.5938Q24.1172 20.5938 25.6172 21.0469Q27.6484 21.6562 29.0859 23.1953Q30.5234 24.7344 31.25 26.9219Q31.9766 29.1094 31.9766 32.3281Q31.9766 35.1562 31.1719 37.4297Q30.3672 39.7031 28.8047 41.2188Q27.6016 42.3594 25.5703 43.0156Q24.0391 43.5 21.4609 43.5L12.7734 43.5L12.7734 33.5L10.3984 33.5L10.3984 30.5938L12.7734 30.5938L12.7734 20.5938ZM17.3828 24.4688L17.3828 30.5938L22.2891 30.5938L22.2891 33.5L17.3828 33.5L17.3828 39.6406L20.8516 39.6406Q23.1484 39.6406 24.1641 39.2656Q25.5078 38.7969 26.2109 37.5469Q27.1953 35.7812 27.1953 32.1562Q27.1953 29.5781 26.7812 28.1797Q26.3672 26.7812 25.5625 25.9219Q24.7578 25.0625 23.4609 24.7188Q22.4609 24.4688 19.4766 24.4688L17.3828 24.4688ZM35.9297 43.5L35.9297 20.5938L40.4297 20.5938L49.8047 35.8906L49.8047 20.5938L54.1016 20.5938L54.1016 43.5L49.4609 43.5L40.2266 28.5625L40.2266 43.5L35.9297 43.5Z"/>
</svg>
