<svg width="20" height="22" viewBox="0 0 20 22" fill="none" xmlns="http://www.w3.org/2000/svg">
<path d="M1.00019 10V21" stroke="#FFAA2B" stroke-width="2" stroke-linecap="round" stroke-linejoin="round"/>
<path d="M1.00019 10C1.06719 9.667 1.56019 9 3.00019 9" stroke="#FFAA2B" stroke-width="2" stroke-linecap="round" stroke-linejoin="round"/>
<path d="M19.0002 10C18.9332 9.667 18.4402 9 17.0002 9" stroke="#FFAA2B" stroke-width="2" stroke-linecap="round" stroke-linejoin="round"/>
<path d="M19.0002 10V21" stroke="#FFAA2B" stroke-width="2" stroke-linecap="round" stroke-linejoin="round"/>
<path d="M1.00019 21C2.36837 20.21 3.92036 19.7942 5.50019 19.7942C7.08002 19.7942 8.63202 20.21 10.0002 21C11.3684 20.21 12.9204 19.7942 14.5002 19.7942C16.08 19.7942 17.632 20.21 19.0002 21" stroke="#FFAA2B" stroke-width="2" stroke-linecap="round" stroke-linejoin="round"/>
<path d="M7.60027 12.071C6.93121 11.5803 6.43479 10.8903 6.18227 10.1C5.9322 9.31346 5.94026 8.46758 6.20526 7.68598C6.47347 6.90039 6.98306 6.21965 7.66126 5.74098C8.34579 5.2585 9.16278 4.99951 10.0003 4.99951C10.8377 4.99951 11.6547 5.2585 12.3393 5.74098C13.0175 6.21965 13.5271 6.90039 13.7953 7.68598C14.0603 8.46758 14.0683 9.31346 13.8183 10.1C13.5657 10.8903 13.0693 11.5803 12.4003 12.071C12.0888 12.3733 11.8534 12.7451 11.7133 13.156C11.5747 13.5649 11.536 14.001 11.6003 14.428C11.5998 14.635 11.5581 14.8399 11.4776 15.0307C11.3971 15.2215 11.2793 15.3942 11.1313 15.539C10.8287 15.834 10.4228 15.9991 10.0003 15.9991C9.57767 15.9991 9.17182 15.834 8.86927 15.539C8.72101 15.3944 8.60314 15.2216 8.5226 15.0308C8.44206 14.84 8.40046 14.6351 8.40026 14.428C8.46421 14.001 8.42512 13.5648 8.28626 13.156C8.14652 12.7452 7.91144 12.3734 7.60027 12.071Z" stroke="#FFAA2B" stroke-width="2" stroke-linecap="round" stroke-linejoin="round"/>
<path d="M8.16011 12.8571H11.8401" stroke="#FFAA2B" stroke-width="1.5" stroke-linecap="round" stroke-linejoin="round"/>
<path d="M10.0002 2V1" stroke="#FFAA2B" stroke-width="2" stroke-linecap="round" stroke-linejoin="round"/>
<path d="M5.00012 3.99995L4.04512 3.69995" stroke="#FFAA2B" stroke-width="2" stroke-linecap="round" stroke-linejoin="round"/>
<path d="M15.0002 3.99995L15.9552 3.69995" stroke="#FFAA2B" stroke-width="2" stroke-linecap="round" stroke-linejoin="round"/>
</svg>
